<svg xmlns="http://www.w3.org/2000/svg" xmlns:xlink="http://www.w3.org/1999/xlink" viewBox="0 0 24 24">
  <defs>
    <style>
      .cls-1 {
        fill: url(#Degradado_sin_nombre_2);
      }

      .cls-2 {
        fill: url(#Degradado_sin_nombre_2-2);
      }

      .cls-3 {
        fill: url(#Degradado_sin_nombre_2-3);
      }

      .cls-4 {
        fill: url(#Degradado_sin_nombre_2-4);
      }

      .cls-5 {
        fill: url(#Degradado_sin_nombre_2-5);
      }
    </style>
    <linearGradient id="Degradado_sin_nombre_2" data-name="Degradado sin nombre 2" x1="10.7" y1="8.63" x2="12.49" y2="8.63" gradientUnits="userSpaceOnUse">
      <stop offset="0" stop-color="#00e4f8"/>
      <stop offset="1" stop-color="#f705e8"/>
    </linearGradient>
    <linearGradient id="Degradado_sin_nombre_2-2" x1="12.57" y1="12.43" x2="14.29" y2="12.43" xlink:href="#Degradado_sin_nombre_2"/>
    <linearGradient id="Degradado_sin_nombre_2-3" x1="6.87" y1="8.63" x2="8.67" y2="8.63" xlink:href="#Degradado_sin_nombre_2"/>
    <linearGradient id="Degradado_sin_nombre_2-4" x1="0" y1="12" x2="24" y2="12" xlink:href="#Degradado_sin_nombre_2"/>
    <linearGradient id="Degradado_sin_nombre_2-5" x1="15.88" y1="12.43" x2="17.59" y2="12.43" xlink:href="#Degradado_sin_nombre_2"/>
  </defs>
  <g id="Layer_2" data-name="Layer 2">
    <g id="Layer_1-2" data-name="Layer 1">
      <g>
        <g>
          <path class="cls-1" d="M11.6,7.73a.9.9,0,1,0,.89.9A.9.9,0,0,0,11.6,7.73Z"/>
          <path class="cls-2" d="M13.43,11.57a.86.86,0,1,0,.86.85A.86.86,0,0,0,13.43,11.57Z"/>
          <path class="cls-3" d="M7.77,7.73a.9.9,0,1,0,.9.9A.9.9,0,0,0,7.77,7.73Z"/>
          <path class="cls-4" d="M12,0A12,12,0,1,0,24,12,12,12,0,0,0,12,0ZM7.85,14.78l-2.08.94.43-1.66a4.61,4.61,0,0,1-2.33-3.88c0-2.68,2.62-4.85,5.85-4.85a5.77,5.77,0,0,1,5.66,3.6H15c-3.21,0-5.83,2.23-5.83,5A3.93,3.93,0,0,0,9.3,15,6.76,6.76,0,0,1,7.85,14.78ZM18.26,17.1l.37,1.57-1.71-.88a5.84,5.84,0,0,1-2,.34c-2.8,0-5.08-1.89-5.08-4.22S12.14,9.7,14.94,9.7,20,11.59,20,13.91A3.93,3.93,0,0,1,18.26,17.1Z"/>
        </g>
        <path class="cls-5" d="M16.73,11.57a.86.86,0,0,0,0,1.71.86.86,0,1,0,0-1.71Z"/>
      </g>
    </g>
  </g>
</svg>
