<svg xmlns="http://www.w3.org/2000/svg" xmlns:xlink="http://www.w3.org/1999/xlink" viewBox="0 0 24 24">
  <defs>
    <style>
      .cls-1 {
        fill: url(#Degradado_sin_nombre_2);
      }
    </style>
    <linearGradient id="Degradado_sin_nombre_2" data-name="Degradado sin nombre 2" y1="12" x2="24" y2="12" gradientUnits="userSpaceOnUse">
      <stop offset="0" stop-color="#00e4f8"/>
      <stop offset="1" stop-color="#f705e8"/>
    </linearGradient>
  </defs>
  <g id="Layer_2" data-name="Layer 2">
    <g id="Layer_1-2" data-name="Layer 1">
      <path class="cls-1" d="M22.68,0H1.32A1.32,1.32,0,0,0,0,1.32V22.68A1.32,1.32,0,0,0,1.32,24h11.5V14.7H9.69V11.1h3.13V8.4A4.32,4.32,0,0,1,14,4.92,4.36,4.36,0,0,1,17.47,3.6a23.76,23.76,0,0,1,2.8.15V7H18.36c-1.51,0-1.8.73-1.8,1.77v2.31h3.6l-.47,3.6H16.56V24h6.12A1.32,1.32,0,0,0,24,22.68V1.32A1.32,1.32,0,0,0,22.68,0Z"/>
    </g>
  </g>
</svg>
