<svg xmlns="http://www.w3.org/2000/svg" xmlns:xlink="http://www.w3.org/1999/xlink" viewBox="0 0 24 24">
  <defs>
    <style>
      .cls-1 {
        fill: url(#Degradado_sin_nombre_2);
      }
    </style>
    <linearGradient id="Degradado_sin_nombre_2" data-name="Degradado sin nombre 2" y1="12" x2="24" y2="12" gradientUnits="userSpaceOnUse">
      <stop offset="0" stop-color="#00e4f8"/>
      <stop offset="1" stop-color="#f705e8"/>
    </linearGradient>
  </defs>
  <g id="Layer_2" data-name="Layer 2">
    <g id="Layer_1-2" data-name="Layer 1">
      <path class="cls-1" d="M12,9a3,3,0,1,0,3,3,3,3,0,0,0-3-3ZM23.92,6.08a7.89,7.89,0,0,0-.51-2.71A4.77,4.77,0,0,0,20.63.59,7.89,7.89,0,0,0,17.92.08C16.37,0,15.91,0,12,0S7.63,0,6.08.08A7.89,7.89,0,0,0,3.37.59,4.77,4.77,0,0,0,.59,3.37,7.89,7.89,0,0,0,.08,6.08C0,7.63,0,8.09,0,12s0,4.37.08,5.92a8.45,8.45,0,0,0,.51,2.72,4.79,4.79,0,0,0,2.78,2.77,7.89,7.89,0,0,0,2.71.51C7.63,24,8.09,24,12,24s4.37,0,5.92-.08a7.89,7.89,0,0,0,2.71-.51,4.79,4.79,0,0,0,2.78-2.77,7.9,7.9,0,0,0,.51-2.72c.08-1.55.08-2,.08-5.92s0-4.37-.08-5.92Zm-3.05,9.6a7,7,0,0,1-.47,2.17,4.63,4.63,0,0,1-2.55,2.55,6.75,6.75,0,0,1-2.18.42H8.33a6.75,6.75,0,0,1-2.18-.42,4.29,4.29,0,0,1-1.57-1,4.37,4.37,0,0,1-1-1.52,6.74,6.74,0,0,1-.41-2.18V8.33A6.74,6.74,0,0,1,3.6,6.15a4.29,4.29,0,0,1,1-1.57,4.37,4.37,0,0,1,1.52-1,6.75,6.75,0,0,1,2.18-.42h7.34a6.75,6.75,0,0,1,2.18.42,4.29,4.29,0,0,1,1.57,1,4.37,4.37,0,0,1,1,1.52,6.75,6.75,0,0,1,.42,2.18V12c0,2.47.09,2.72.05,3.67ZM19,6.75a2.87,2.87,0,0,0-1.7-1.69A4.83,4.83,0,0,0,15.6,4.8H8.4a4.6,4.6,0,0,0-1.65.31,2.87,2.87,0,0,0-1.7,1.64A5.12,5.12,0,0,0,4.8,8.4v7.2a5.08,5.08,0,0,0,.31,1.65A2.86,2.86,0,0,0,6.81,19a5.4,5.4,0,0,0,1.59.31h7.2A4.6,4.6,0,0,0,17.25,19a2.86,2.86,0,0,0,1.7-1.7,4.6,4.6,0,0,0,.31-1.65V8.4A4.6,4.6,0,0,0,19,6.75ZM12,16.58A4.58,4.58,0,1,1,16.59,12,4.59,4.59,0,0,1,12,16.58Zm4.8-8.26a1.08,1.08,0,0,1,0-2.15,1.08,1.08,0,0,1,0,2.15Z"/>
    </g>
  </g>
</svg>
