<svg xmlns="http://www.w3.org/2000/svg" xmlns:xlink="http://www.w3.org/1999/xlink" viewBox="0 0 24 24">
  <defs>
    <style>
      .cls-1 {
        fill: url(#Degradado_sin_nombre_2);
      }
    </style>
    <linearGradient id="Degradado_sin_nombre_2" data-name="Degradado sin nombre 2" y1="12" x2="24" y2="12" gradientUnits="userSpaceOnUse">
      <stop offset="0" stop-color="#00e4f8"/>
      <stop offset="1" stop-color="#f705e8"/>
    </linearGradient>
  </defs>
  <g id="Layer_2" data-name="Layer 2">
    <g id="Layer_1-2" data-name="Layer 1">
      <path class="cls-1" d="M24,5.46a13.48,13.48,0,0,0-.12-1.55,5.31,5.31,0,0,0-.44-1.29A4.53,4.53,0,0,0,21.38.56,5.29,5.29,0,0,0,20.09.13,13.33,13.33,0,0,0,18.55,0H5.46A13.48,13.48,0,0,0,3.91.12,5.31,5.31,0,0,0,2.62.56,4.53,4.53,0,0,0,.56,2.62,5.29,5.29,0,0,0,.13,3.91,13.33,13.33,0,0,0,0,5.45V18.54a13.48,13.48,0,0,0,.12,1.55,5.31,5.31,0,0,0,.44,1.29,4.53,4.53,0,0,0,2.06,2.06,5.29,5.29,0,0,0,1.29.43A13.33,13.33,0,0,0,5.45,24H18.54a13.48,13.48,0,0,0,1.55-.12,5.31,5.31,0,0,0,1.29-.44,4.53,4.53,0,0,0,2.06-2.06,5.29,5.29,0,0,0,.43-1.29A13.33,13.33,0,0,0,24,18.55V5.46ZM12.28,20.4a8.58,8.58,0,0,1-4.12-1.08L3.6,20.52l1.2-4.47a8.51,8.51,0,0,1-1.2-4.29,8.62,8.62,0,1,1,8.68,8.64Zm0-15.75a7.19,7.19,0,0,0-6.06,11l.16.28-.72,2.63,2.74-.75.26.16a7.19,7.19,0,1,0,3.6-13.41Zm4.2,10.22a2.2,2.2,0,0,1-1.46,1,2.9,2.9,0,0,1-1.34-.08,12.38,12.38,0,0,1-1.2-.46,9.64,9.64,0,0,1-3.67-3.24,4.2,4.2,0,0,1-.88-2.22,2.4,2.4,0,0,1,.76-1.8.79.79,0,0,1,.57-.27H9.6c.13,0,.31,0,.48.37s.61,1.49.67,1.6a.4.4,0,0,1,0,.37,1.17,1.17,0,0,1-.21.36c-.11.13-.23.29-.33.39s-.22.21-.09.43a6.6,6.6,0,0,0,1.2,1.49,5.8,5.8,0,0,0,1.73,1.06c.21.12.34.1.46,0a5.85,5.85,0,0,0,.68-.84c.15-.21.29-.17.49-.1s1.26.59,1.47.7.35.15.41.24a2,2,0,0,1-.08.94Z"/>
    </g>
  </g>
</svg>
