<svg xmlns="http://www.w3.org/2000/svg" xmlns:xlink="http://www.w3.org/1999/xlink" viewBox="0 0 24 16.86">
  <defs>
    <style>
      .cls-1 {
        fill: url(#Degradado_sin_nombre_2);
      }
    </style>
    <linearGradient id="Degradado_sin_nombre_2" data-name="Degradado sin nombre 2" y1="8.43" x2="24" y2="8.43" gradientUnits="userSpaceOnUse">
      <stop offset="0" stop-color="#00e4f8"/>
      <stop offset="1" stop-color="#f705e8"/>
    </linearGradient>
  </defs>
  <g id="Layer_2" data-name="Layer 2">
    <g id="Layer_1-2" data-name="Layer 1">
      <path class="cls-1" d="M24,5.94a9.12,9.12,0,0,0-1-4.5A3.18,3.18,0,0,0,21.13.35,87,87,0,0,0,12,0,86.2,86.2,0,0,0,2.91.34a3.11,3.11,0,0,0-1.59.81C.34,2.05.23,3.6.12,4.91A52,52,0,0,0,.12,12a10.62,10.62,0,0,0,.32,2.18,3.68,3.68,0,0,0,.78,1.49,3.12,3.12,0,0,0,1.63.84,49.33,49.33,0,0,0,7.08.37c3.82,0,7.17,0,11.12-.31a3.22,3.22,0,0,0,1.67-.85,2.78,2.78,0,0,0,.66-1.09A11.69,11.69,0,0,0,24,10.89c0-.61,0-4.29,0-4.95ZM9.54,11.55V4.8L16,8.19c-1.81,1-4.2,2.14-6.45,3.36Z"/>
    </g>
  </g>
</svg>
