<svg xmlns="http://www.w3.org/2000/svg" xmlns:xlink="http://www.w3.org/1999/xlink" viewBox="0 0 23.21 22.96">
  <defs>
    <style>
      .cls-1 {
        fill: url(#Degradado_sin_nombre_2);
      }
    </style>
    <linearGradient id="Degradado_sin_nombre_2" data-name="Degradado sin nombre 2" y1="11.48" x2="23.21" y2="11.48" gradientUnits="userSpaceOnUse">
      <stop offset="0" stop-color="#00e4f8"/>
      <stop offset="1" stop-color="#f705e8"/>
    </linearGradient>
  </defs>
  <g id="Layer_2" data-name="Layer 2">
    <g id="Layer_1-2" data-name="Layer 1">
      <path class="cls-1" d="M6.3,5.41c0-.11.08-.18.23-.18h4.66l.11,0v5.91h-6c0-.45,0-.9.07-1.34A17.15,17.15,0,0,1,6.3,5.41Zm11.63,5.47a17.13,17.13,0,0,0-1-5.44.25.25,0,0,0-.29-.21H11.93v5.92h6ZM5.28,12.05a17.12,17.12,0,0,0,1,5.44.27.27,0,0,0,.3.21H11.3V11.78h-6A2.35,2.35,0,0,0,5.28,12.05Zm6.65,5.63h4.74c.16,0,.2-.08.24-.2a17.2,17.2,0,0,0,1-4.43c0-.43,0-.85.06-1.29h-6ZM5,8.16c.18-1,.47-1.95.71-2.93H2.06a.36.36,0,0,0-.35.19A11.51,11.51,0,0,0,.13,9.84c-.07.43-.09.87-.13,1.32H4.62C4.74,10.15,4.8,9.14,5,8.16ZM17.52,5.23c.24,1,.53,1.95.71,2.93s.24,2,.36,3h4.59a1.2,1.2,0,0,0,0-.19,11.4,11.4,0,0,0-1.73-5.61.38.38,0,0,0-.27-.12H17.52ZM5.75,17.68a18,18,0,0,1-1.07-5.89H0c0,.13,0,.25,0,.36a11.57,11.57,0,0,0,1.69,5.36.33.33,0,0,0,.33.19h3.7Zm12.77-5.9a17.93,17.93,0,0,1-1.06,5.9h3.76c.15,0,.2-.08.26-.18a11.51,11.51,0,0,0,1.6-4.45c.06-.42.09-.85.13-1.29ZM8.28,2.05A9.34,9.34,0,0,0,6.63,4.62h4.68V.37c-.37.09-.7.16-1,.27A4.91,4.91,0,0,0,8.28,2.05ZM7.79,20.29a5.48,5.48,0,0,0,2.51,2,9.54,9.54,0,0,0,1,.26V18.29H6.62A9.9,9.9,0,0,0,7.79,20.29ZM15.69,3A5.87,5.87,0,0,0,13.14.72,11.54,11.54,0,0,0,11.93.35V4.63h4.7C16.3,4.07,16,3.53,15.69,3Zm0,16.87c.33-.5.61-1,.93-1.6h-4.7v4.27a11,11,0,0,0,1.22-.37A5.91,5.91,0,0,0,15.69,19.9ZM14.74,1.07a9.63,9.63,0,0,1,2.38,3.37.29.29,0,0,0,.31.21H21a11.59,11.59,0,0,0-3.53-3.17A11,11,0,0,0,13,0c.29.15.6.28.88.45A7.12,7.12,0,0,1,14.74,1.07ZM6.09,18.48a.29.29,0,0,0-.31-.2H2.29a11.11,11.11,0,0,0,3.47,3.16c1.31.78,3.84,1.6,4.45,1.44a5.48,5.48,0,0,1-1.74-1A9.41,9.41,0,0,1,6.09,18.48ZM5.69,4.65a.43.43,0,0,0,.44-.29A7.92,7.92,0,0,1,10.19,0a11.58,11.58,0,0,0-8,4.64h.32C3.59,4.64,4.64,4.63,5.69,4.65ZM17.33,18.29c-.07,0-.15.09-.19.16-.34.61-.64,1.24-1,1.81A6.46,6.46,0,0,1,13,22.88s0,0,0,.08a11.73,11.73,0,0,0,8-4.68Z"/>
    </g>
  </g>
</svg>
