<svg xmlns="http://www.w3.org/2000/svg" xmlns:xlink="http://www.w3.org/1999/xlink" viewBox="0 0 23.76 23.46">
  <defs>
    <style>
      .cls-1 {
        fill: url(#Degradado_sin_nombre_2);
      }
    </style>
    <linearGradient id="Degradado_sin_nombre_2" data-name="Degradado sin nombre 2" y1="11.73" x2="23.76" y2="11.73" gradientUnits="userSpaceOnUse">
      <stop offset="0" stop-color="#00e4f8"/>
      <stop offset="1" stop-color="#f705e8"/>
    </linearGradient>
  </defs>
  <g id="Layer_2" data-name="Layer 2">
    <g id="Layer_1-2" data-name="Layer 1">
      <path class="cls-1" d="M20.35,13.73h-1c0-.42,0-.8,0-1.18a1.83,1.83,0,0,0-1.58-1.78c-.5-.06-1,0-1.52,0h-.65c0-.35,0-.68,0-1s-.12-.49-.49-.49H12.26V8.45c.91-.42,1.26-1,1.08-1.8a1.5,1.5,0,0,0-2.93.06A1.54,1.54,0,0,0,11.5,8.45v.78H9.08c-1,0-1,0-.95.94v.56H6.39a1.88,1.88,0,0,0-2,2v1h-1A1.13,1.13,0,0,0,2.13,15v4.28a1.13,1.13,0,0,0,1.22,1.23h1v.32a7.36,7.36,0,0,0,0,1.05,1.85,1.85,0,0,0,1.95,1.62h8.27c1,0,2,0,3,0a1.79,1.79,0,0,0,1.76-1.52,11.52,11.52,0,0,0,.05-1.18v-.28h1a1.14,1.14,0,0,0,1.23-1.25V15A1.15,1.15,0,0,0,20.35,13.73Zm-16,6c-.4,0-.8,0-1.19,0-.23,0-.3-.21-.3-.43V14.94c0-.32.13-.46.45-.46h1ZM11.13,7a.75.75,0,1,1,1.5,0,.75.75,0,0,1-1.5,0ZM8.88,10h6v.71h-6ZM17.3,22.72c-1.8,0-3.61,0-5.42,0H6.42a1.14,1.14,0,0,1-1.29-1.29V12.76a1.15,1.15,0,0,1,1.29-1.28H17.34a1.15,1.15,0,0,1,1.3,1.3c0,2.87,0,5.74,0,8.61A1.23,1.23,0,0,1,17.3,22.72ZM20.89,19c0,.73,0,.76-.77.76H19.4V14.48c.39,0,.77,0,1.15,0,.22,0,.34.18.34.45ZM6.26,8.73a.77.77,0,0,1-.53-.25l-.32-.33-.85-.84a.38.38,0,0,0-.19-.07H1.51A1.37,1.37,0,0,1,0,5.73V1.49A1.38,1.38,0,0,1,1.51,0H8.75a1.39,1.39,0,0,1,1.51,1.49V5.77A1.38,1.38,0,0,1,8.8,7.24H6.88V8a.63.63,0,0,1-.4.69A.6.6,0,0,1,6.26,8.73Zm-2.83-2h1A.88.88,0,0,1,4.91,7c.29.27.57.56.86.85l.32.32c.13.13.18.12.21.11s.09,0,.08-.22V6.8l.33-.06H8.8a.89.89,0,0,0,1-1V1.49a.89.89,0,0,0-1-1H1.51a.89.89,0,0,0-1,1V5.73a.89.89,0,0,0,1,1H3.43Zm14.08,3.49a.83.83,0,0,1-.22,0,.69.69,0,0,1-.41-.7c0-.25,0-.5,0-.76H15A1.39,1.39,0,0,1,13.51,7.2V3A1.39,1.39,0,0,1,15,1.5h7.25A1.39,1.39,0,0,1,23.76,3V7.25a1.37,1.37,0,0,1-1.48,1.49H19.37a.29.29,0,0,0-.17.08c-.3.28-.59.57-.89.87L18,10A.71.71,0,0,1,17.51,10.23Zm-.37-2h.25v.25c0,.35,0,.68,0,1,0,.18.05.2.08.22s.09,0,.21-.1L18,9.34c.3-.3.59-.6.9-.89a.79.79,0,0,1,.51-.21h2.91a.89.89,0,0,0,1-1V3a.89.89,0,0,0-1-1H15a.89.89,0,0,0-1,1V7.2c0,.71.32,1,1,1ZM11.88,21.46a2.74,2.74,0,0,1-2.74-2.68c0-.29,0-.51.14-.66s.36-.14.66-.14H14a.52.52,0,0,1,.6.59A2.68,2.68,0,0,1,13,21.23,2.57,2.57,0,0,1,11.88,21.46Zm-1.94-3H9.61s0,.17,0,.28a2.2,2.2,0,0,0,1,1.84,2.17,2.17,0,0,0,2.09.16,2.2,2.2,0,0,0,1.36-2.2.55.55,0,0,0,0-.09H9.94Zm-1.8-4.41a1.16,1.16,0,1,0,0,2.31,1.16,1.16,0,0,0,0-2.31Zm0,1.85a.7.7,0,1,1,.7-.68A.7.7,0,0,1,8.13,15.92Zm0-1.85a1.16,1.16,0,1,0,0,2.31,1.16,1.16,0,0,0,0-2.31Zm0,1.85a.7.7,0,1,1,.7-.68A.7.7,0,0,1,8.13,15.92Zm7.51-1.85a1.16,1.16,0,1,0,0,2.31,1.16,1.16,0,1,0,0-2.31Zm0,1.85a.7.7,0,1,1,.7-.68A.7.7,0,0,1,15.63,15.92Zm0-1.85a1.16,1.16,0,1,0,0,2.31,1.16,1.16,0,1,0,0-2.31Zm0,1.85a.7.7,0,1,1,.7-.68A.7.7,0,0,1,15.63,15.92ZM8.49,4.76v.72H1.77V4.76Zm0-3v.72H1.77V1.75ZM2.52,4V3.26H7.74V4ZM15.27,4V3.26H22V4ZM22,6.26V7H15.27V6.26Zm-6-.79V4.75h5.22v.72Z"/>
    </g>
  </g>
</svg>
