<svg xmlns="http://www.w3.org/2000/svg" xmlns:xlink="http://www.w3.org/1999/xlink" viewBox="0 0 24 24">
  <defs>
    <style>
      .cls-1 {
        fill: url(#Degradado_sin_nombre_2);
      }
    </style>
    <linearGradient id="Degradado_sin_nombre_2" data-name="Degradado sin nombre 2" y1="12" x2="24" y2="12" gradientUnits="userSpaceOnUse">
      <stop offset="0" stop-color="#00e4f8"/>
      <stop offset="1" stop-color="#f705e8"/>
    </linearGradient>
  </defs>
  <g id="Layer_2" data-name="Layer 2">
    <g id="Layer_1-2" data-name="Layer 1">
      <path class="cls-1" d="M23.78,3.06a2.51,2.51,0,0,0-2.33-1.55c-.57,0-1.12,0-1.69,0h-.27a5.79,5.79,0,0,1,0-.59A.82.82,0,0,0,18.94,0h-.33a.82.82,0,0,0-.53.91c0,.19,0,.38,0,.59H15c0-.21,0-.4,0-.58A.82.82,0,0,0,14.44,0h-.33a.8.8,0,0,0-.56.89c0,.2,0,.39,0,.6h-3.1c0-.2,0-.4,0-.6A.8.8,0,0,0,9.89,0H9.57A.83.83,0,0,0,9,.92c0,.18,0,.36,0,.57H5.92c0-.2,0-.39,0-.58A.8.8,0,0,0,5.39,0H5.07a.84.84,0,0,0-.56.91,5.8,5.8,0,0,1,0,.59c-.48,0-.94,0-1.39,0a3.51,3.51,0,0,0-1.7.28A2.54,2.54,0,0,0,0,4c0,.2,0,.41,0,.6V21.31a2.59,2.59,0,0,0,2,2.61,2.82,2.82,0,0,0,.65.08H21.36A2.55,2.55,0,0,0,24,21.83s0,0,0-.08v-18C23.92,3.52,23.88,3.28,23.78,3.06ZM22.59,21.28a1.19,1.19,0,0,1-1.31,1.31H2.73a1.2,1.2,0,0,1-1.32-1.32V7.45H22.59ZM22.59,6H1.41c0-.68,0-1.35,0-2A1.14,1.14,0,0,1,2.47,2.92c.67,0,1.34,0,2,0,0,.26,0,.52,0,.77a.7.7,0,0,0,.6.72.69.69,0,0,0,.79-.65c0-.27,0-.54,0-.84H9c0,.27,0,.56,0,.83a.69.69,0,0,0,1.36.16,1,1,0,0,0,0-.3V2.92h3.1v.71a.72.72,0,0,0,.73.78A.69.69,0,0,0,15,3.63V2.92h3.13c0,.29,0,.58,0,.87a.67.67,0,0,0,.62.62.69.69,0,0,0,.74-.49c0-.11,0-.21,0-.33V2.94a.51.51,0,0,1,.17,0h1.73a1.17,1.17,0,0,1,1.2,1.2C22.6,4.75,22.59,5.37,22.59,6ZM7,15.81H4.22a.73.73,0,0,0-.83.82v2.79a.73.73,0,0,0,.8.82H7a.73.73,0,0,0,.81-.82V16.64A.73.73,0,0,0,7,15.81Zm-.61,3H4.81V17.22H6.39Zm13.46-3H17a.71.71,0,0,0-.78.78v2.87a.72.72,0,0,0,.78.78h2.85a.72.72,0,0,0,.79-.79c0-.47,0-.93,0-1.4s0-1,0-1.46A.71.71,0,0,0,19.85,15.81Zm-.66,3H17.61V17.22h1.58Zm-12.12-9H4.14a.7.7,0,0,0-.75.75v2.92a.71.71,0,0,0,.75.75H7.07a.7.7,0,0,0,.74-.71q0-1.5,0-3A.7.7,0,0,0,7.07,9.79Zm-.68,3H4.81V11.21H6.39Zm7.07,3H10.54a.69.69,0,0,0-.74.75q0,1.46,0,2.91a.71.71,0,0,0,.73.77h2.94a.72.72,0,0,0,.74-.75v-2.9A.71.71,0,0,0,13.46,15.81Zm-.67,3H11.21V17.24h1.58Zm7.06-9H17a.71.71,0,0,0-.78.75v2.92a.71.71,0,0,0,.76.75h2.9a.71.71,0,0,0,.76-.76c0-1,0-1.94,0-2.9A.7.7,0,0,0,19.85,9.79Zm-.66,3H17.61V11.21h1.58Zm-5.07-1.4c-.72.74-1.45,1.48-2.2,2.2a.65.65,0,0,1-.92,0c-.38-.36-.76-.74-1.12-1.12a.7.7,0,0,1,1-1,4.11,4.11,0,0,1,.29.3c.09.09.17.21.27.32.31-.31.59-.58.84-.85s.56-.56.84-.83a.7.7,0,0,1,1,0A.67.67,0,0,1,14.12,11.39Z"/>
    </g>
  </g>
</svg>
