<svg xmlns="http://www.w3.org/2000/svg" xmlns:xlink="http://www.w3.org/1999/xlink" viewBox="0 0 15 21.94">
  <defs>
    <style>
      .cls-1 {
        fill: url(#Degradado_sin_nombre_2);
      }

      .cls-2 {
        fill: url(#Degradado_sin_nombre_2-2);
      }
    </style>
    <linearGradient id="Degradado_sin_nombre_2" data-name="Degradado sin nombre 2" x1="1.5" y1="4.05" x2="13.5" y2="4.05" gradientUnits="userSpaceOnUse">
      <stop offset="0" stop-color="#00e4f8"/>
      <stop offset="1" stop-color="#f705e8"/>
    </linearGradient>
    <linearGradient id="Degradado_sin_nombre_2-2" x1="0" y1="14.72" x2="15" y2="14.72" xlink:href="#Degradado_sin_nombre_2"/>
  </defs>
  <g id="Layer_2" data-name="Layer 2">
    <g id="Layer_1-2" data-name="Layer 1">
      <g>
        <path class="cls-1" d="M7.5,0a6,6,0,0,0-6,6V8.1a14.42,14.42,0,0,1,3-1V6a3,3,0,0,1,6,0V7.12a14.42,14.42,0,0,1,3,1V6A6,6,0,0,0,7.5,0Z"/>
        <path class="cls-2" d="M15,13.15a11.92,11.92,0,0,1-2.34,7.18,4.1,4.1,0,0,1-3.29,1.6H5.64a4.12,4.12,0,0,1-3.31-1.61A12,12,0,0,1,0,13.15a8.84,8.84,0,0,1,.09-1.37v0a4.07,4.07,0,0,1,2.66-3.4,13.62,13.62,0,0,1,9.5,0,4.07,4.07,0,0,1,2.65,3.36v.06A10.28,10.28,0,0,1,15,13.15Z"/>
      </g>
    </g>
  </g>
</svg>
