<svg xmlns="http://www.w3.org/2000/svg" xmlns:xlink="http://www.w3.org/1999/xlink" viewBox="0 0 24 23.95">
  <defs>
    <style>
      .cls-1 {
        fill: url(#Degradado_sin_nombre_2);
      }
    </style>
    <linearGradient id="Degradado_sin_nombre_2" data-name="Degradado sin nombre 2" y1="11.97" x2="24" y2="11.97" gradientUnits="userSpaceOnUse">
      <stop offset="0" stop-color="#00e4f8"/>
      <stop offset="1" stop-color="#f705e8"/>
    </linearGradient>
  </defs>
  <g id="Layer_2" data-name="Layer 2">
    <g id="Layer_1-2" data-name="Layer 1">
      <path class="cls-1" d="M21.2,1.78A15.06,15.06,0,0,0,16.61.39C15.54.23,14.46.15,13.38,0l-.21,0H10.83L9.71.09A19.94,19.94,0,0,0,3.29,1.56a10.58,10.58,0,0,0-1.52.82A3.66,3.66,0,0,0,0,4.82V19.7s0,.05,0,.08a2.84,2.84,0,0,0,.75,1.53,7.07,7.07,0,0,0,2.12,1.51s0,0,0,0v-.27C3,20.75,3,19,3,17.2a.44.44,0,0,1,.31-.49,17.46,17.46,0,0,1,4.26-1.22l.88-.14c0-.25-.06-.46-.1-.7L6.48,15c0-.23,0-.44,0-.64s0-.21.19-.26a1.7,1.7,0,0,0,1.22-1.63c0-.95,0-1.91,0-2.87A1.73,1.73,0,0,0,6.31,7.83a1.77,1.77,0,0,0-1.87,1.3l-.06.17c-.51-.05-.52-.05-1.42.32,0-.49,0-1,0-1.45a.77.77,0,0,0-.48-.87A3.56,3.56,0,0,1,1,6,1.67,1.67,0,0,1,1,4.1,3.6,3.6,0,0,1,2.07,3,10.49,10.49,0,0,1,5.25,1.59,22.85,22.85,0,0,1,10.7.74a25.64,25.64,0,0,1,7.41.67A11.7,11.7,0,0,1,21.75,2.9a2.69,2.69,0,0,1,.27.2s0,0,0,0H18V8.3H16.43v6.46l-.75-.1c0,.25-.06.46-.08.69l.6.09a17.68,17.68,0,0,1,4.62,1.31.34.34,0,0,1,.22.35c0,1.82,0,3.64,0,5.45v.33a11.85,11.85,0,0,0,1.08-.66,11,11,0,0,0,1.25-1.12A2.85,2.85,0,0,0,24,19.7V4.82C23.7,3.23,22.5,2.44,21.2,1.78ZM5.08,9.6a1,1,0,0,1,2.06-.31,1.67,1.67,0,0,1,.05.39v2.66a1.06,1.06,0,1,1-2.11,0Q5.07,11,5.08,9.6Zm.27,4.49a.26.26,0,0,1,.42.19,4.09,4.09,0,0,1,0,.7.22.22,0,0,1-.12.17l-1.23.35c0-.27,0-.51,0-.75a.31.31,0,0,1,.13-.15C4.82,14.43,5.1,14.28,5.35,14.09ZM3,11a1.05,1.05,0,0,1,1.36-1v.24c0,.59,0,1.19,0,1.78a2,2,0,0,0,.49,1.54,1,1,0,0,1-1,.34,1,1,0,0,1-.81-.76,1.35,1.35,0,0,1,0-.28C3,12.28,3,11.66,3,11Zm0,3.28c.22.1.43.18.63.28a.22.22,0,0,1,.1.15c0,.3,0,.6,0,.89a.2.2,0,0,1-.07.15c-.21.1-.43.18-.66.28ZM2.19,8s.05.09.07.14a.65.65,0,0,1,0,.14V21.65a3.07,3.07,0,0,1-1.53-2,1.83,1.83,0,0,1,0-.33V6.87ZM21,16.06c-.33-.13-.64-.28-1-.38l-2.73-.75c-.12,0-.19,0-.19-.2V9.1a.58.58,0,0,1,0-.1H21Zm0-8.17a2.47,2.47,0,0,1,0,.39H18.71V3.84h3.9A.34.34,0,0,1,23,4a1.71,1.71,0,0,1,0,2.06,4.61,4.61,0,0,1-1.64,1.36A.4.4,0,0,0,21,7.89Zm2.25,11.5a1.93,1.93,0,0,1-.15.75,3.45,3.45,0,0,1-1.39,1.5V8.28A.46.46,0,0,1,22,7.85c.45-.3.87-.65,1.3-1a.35.35,0,0,1,0,.13Q23.29,13.2,23.28,19.39Zm-7-1.19-2.47-.53c0-.38,0-.74,0-1.1A.45.45,0,0,1,14,16.2,3,3,0,0,0,15.15,14c0-.8,0-1.61,0-2.41a2.22,2.22,0,0,0-.06-.44,3.16,3.16,0,0,0-6.23.37c0,.84,0,1.68,0,2.52a2.43,2.43,0,0,0,.81,1.84,1.45,1.45,0,0,1,.52,1.42,1.47,1.47,0,0,0,0,.21c0,.16,0,.22-.2.25l-2.26.47a2.26,2.26,0,0,0-1.95,2.35v3.16c0,.07,0,.15,0,.23h.69v-.3c0-1.05,0-2.1,0-3.16a1.52,1.52,0,0,1,1.29-1.57c.35-.08.72-.14,1.07-.23a11.2,11.2,0,0,1,3.41-.37c.31,0,.62,0,.93,0a3.12,3.12,0,0,1,.44.05l2.52.54a1.55,1.55,0,0,1,1.37,1.67v3.37h.7V20.6A2.26,2.26,0,0,0,16.28,18.2Zm-6-8.16A2.33,2.33,0,0,1,12.9,9.5a2.4,2.4,0,0,1,1.56,2.31.48.48,0,0,1,0,.12,2.46,2.46,0,0,1-4.91.39A2.62,2.62,0,0,1,10.27,10Zm2.82,7.55H10.91v-.87a3.39,3.39,0,0,0,2.18,0Zm-.83-1.4a2.45,2.45,0,0,1-2.68-2.07,3.21,3.21,0,0,0,4.82,0A2.4,2.4,0,0,1,12.26,16.19Zm-2.43-11A1.76,1.76,0,0,0,7,3.44a.7.7,0,0,1-.33.09c-.26,0-.52.06-.78.08a.66.66,0,0,1-.28,0A1.51,1.51,0,0,0,3.94,4a1.42,1.42,0,0,0-.28,1.63,1.44,1.44,0,0,0,1.42.92H6.69c.55,0,1.11,0,1.66,0A1.7,1.7,0,0,0,9.83,5.14Zm-1.63.7c-1.07,0-2.14,0-3.21,0a.79.79,0,0,1-.71-.55.83.83,0,0,1,.23-.88.76.76,0,0,1,.92-.1.45.45,0,0,0,.62,0,.7.7,0,0,1,.7,0l.32.16a1.3,1.3,0,0,1,.81-.68,1.06,1.06,0,0,1,1.26.84A1,1,0,0,1,8.2,5.84Zm4.39-1.41a1.53,1.53,0,1,0,1.53-1.52A1.52,1.52,0,0,0,12.59,4.43Zm1.52-.82a.82.82,0,0,1,.82.82.82.82,0,0,1-1.64,0A.82.82,0,0,1,14.11,3.61Zm-6,17.55h.67V24H8.14Zm7,0h.67V24h-.67ZM12.27,5.78l.49.48-.48.46-.47-.46ZM11.19,4.09h.68v.67h-.68Zm1.12-1.93.44.47L12.24,3l-.4-.43Zm3.64,0,.45.5c-.15.12-.31.27-.48.42l-.47-.45Zm0,3.64.47.47-.48.46-.45-.5ZM14.45,2.19h-.68V1.52h.68ZM17,4.77h-.67V4.09H17ZM13.78,6.66h.67v.68h-.67Zm5,4h-.67V10h.67Zm1.41,0h-.67V10h.67Zm-2.08,1.19h.67v.68h-.67Zm2.08.67h-.67v-.67h.67Zm-2.08,1.21h.68v.66h-.68Zm1.41,0h.67v.68h-.67ZM21,4.8h.68v.66H21Zm-1.4,0h.68v.68h-.68Zm0,1.88h.68v.67h-.68Z"/>
    </g>
  </g>
</svg>
