<svg xmlns="http://www.w3.org/2000/svg" xmlns:xlink="http://www.w3.org/1999/xlink" viewBox="0 0 21.67 24">
  <defs>
    <style>
      .cls-1 {
        fill: url(#Degradado_sin_nombre_2);
      }

      .cls-2 {
        fill: url(#Degradado_sin_nombre_2-2);
      }
    </style>
    <linearGradient id="Degradado_sin_nombre_2" data-name="Degradado sin nombre 2" y1="12" x2="21.67" y2="12" gradientUnits="userSpaceOnUse">
      <stop offset="0" stop-color="#00e4f8"/>
      <stop offset="1" stop-color="#f705e8"/>
    </linearGradient>
    <linearGradient id="Degradado_sin_nombre_2-2" x1="8.77" x2="12.89" xlink:href="#Degradado_sin_nombre_2"/>
  </defs>
  <g id="Layer_2" data-name="Layer 2">
    <g id="Layer_1-2" data-name="Layer 1">
      <g>
        <path class="cls-1" d="M21.65,11.49c0-.3,0-.58,0-.81h0c0-.5-.07-.82-.07-.82a12.42,12.42,0,0,0-3-6.34A10.33,10.33,0,0,0,10.85,0,10.3,10.3,0,0,0,3.16,3.52a12.32,12.32,0,0,0-3,6.39s0,.3-.08.77c0,.1,0,.22,0,.34a14.74,14.74,0,0,0,.15,3.53h0a5.51,5.51,0,0,0,.22.78,12.18,12.18,0,0,0,3.37,5.78.32.32,0,0,0,.49,0,.41.41,0,0,0,0-.55,11.86,11.86,0,0,1-1.16-1.29,12.72,12.72,0,0,1,1.65-.63,12.27,12.27,0,0,0,.88,1.48A14.9,14.9,0,0,0,8,22.77a9.37,9.37,0,0,1-2.06-.95.34.34,0,0,0-.48.15.4.4,0,0,0,.13.53A10.15,10.15,0,0,0,10.85,24a10.32,10.32,0,0,0,7.69-3.51,12.33,12.33,0,0,0,2.76-5.15,10,10,0,0,0,.37-2.9C21.67,12.11,21.66,11.78,21.65,11.49Zm-.82-1.63H18.38c0-.21-.06-.41-.1-.61a14.13,14.13,0,0,0-1-3.18L17.5,6a11.51,11.51,0,0,0,1.58-.6A11.66,11.66,0,0,1,20.83,9.86ZM14,15.33h3.5a12.74,12.74,0,0,1-.84,2.41,20.53,20.53,0,0,0-2.91-.54C13.8,16.59,13.88,16,14,15.33ZM13.7,6.81a22.35,22.35,0,0,0,2.91-.54,13.68,13.68,0,0,1,1,3.14c0,.17,0,.33.08.5H14c0-.2,0-.39,0-.59C13.93,8.45,13.83,7.61,13.7,6.81ZM14,14.55a33.66,33.66,0,0,0,0-3.87h3.67a17.93,17.93,0,0,1,0,3.87ZM18,4.07c.21.23.4.46.59.71a12.18,12.18,0,0,1-1.32.48L17,5.37a13.84,13.84,0,0,0-.74-1.29,12.74,12.74,0,0,0-2.48-2.83A9.9,9.9,0,0,1,18,4.07ZM11.93.84a11.87,11.87,0,0,1,3.74,3.69c.21.34.41.68.6,1A19.65,19.65,0,0,1,13.56,6,17.11,17.11,0,0,0,11.76.83ZM8.36,9.91c0-.17,0-.35,0-.52.07-.87.17-1.71.3-2.51.65,0,1.26.07,1.83.08H11c.69,0,1.38,0,2-.08.14.8.24,1.64.31,2.51,0,.17,0,.35,0,.52a3.69,3.69,0,0,1,0,.77,33.61,33.61,0,0,1,0,3.87,6.88,6.88,0,0,1-.1.78c-.06.61-.15,1.22-.24,1.8-.81-.07-1.63-.09-2.47-.08-.57,0-1.19,0-1.83.07-.1-.58-.18-1.18-.24-1.79a5.27,5.27,0,0,1-.07-.78c-.09-1.27-.07-2.92-.05-3.87C8.34,10.68,8.33,10.34,8.36,9.91ZM10.85.78h0a14.72,14.72,0,0,1,2,5.33,21.94,21.94,0,0,1-2.31.07c-.53,0-1.1,0-1.7-.06a14.89,14.89,0,0,1,2-5.34Zm-.91,0a16.63,16.63,0,0,0-1.8,5.23A19.22,19.22,0,0,1,5.41,5.6c.19-.36.39-.72.62-1.07A11.94,11.94,0,0,1,9.76.84ZM7.65,14.55H4.09A20.17,20.17,0,0,1,4,10.68H7.62A33.66,33.66,0,0,0,7.65,14.55ZM4,9.91c0-.17.05-.33.08-.5a14.51,14.51,0,0,1,1-3.1A20,20,0,0,0,8,6.83c-.13.79-.23,1.63-.3,2.49,0,.2,0,.39,0,.59ZM3.66,4.07A9.9,9.9,0,0,1,7.94,1.25,13,13,0,0,0,5.45,4.08c-.27.43-.52.87-.75,1.33a13.16,13.16,0,0,1-1.64-.63C3.25,4.54,3.45,4.3,3.66,4.07ZM2.61,5.41a13.71,13.71,0,0,0,1.76.7,14.86,14.86,0,0,0-1,3.14c0,.22-.07.44-.1.66H.86A11.66,11.66,0,0,1,2.61,5.41ZM.8,10.68H3.25a18.12,18.12,0,0,0,.07,3.87H.92A16.13,16.13,0,0,1,.8,10.68Zm1.82,7.91a11.49,11.49,0,0,1-1.49-3.26H3.52a14.34,14.34,0,0,0,.85,2.57A14.44,14.44,0,0,0,2.62,18.59Zm1.63-3.26h3.5c.06.63.14,1.24.24,1.84a19.73,19.73,0,0,0-2.92.52A13,13,0,0,1,4.25,15.33Zm5.51,7.83a12.65,12.65,0,0,1-3.61-3.55,11.43,11.43,0,0,1-.73-1.21A17.81,17.81,0,0,1,8.13,18c.14.71.31,1.38.5,2a16.09,16.09,0,0,0,1.31,3.21Zm1.09.07h0A13,13,0,0,1,9.3,19.72a18.81,18.81,0,0,1-.46-1.83c.6,0,1.17-.06,1.7-.06a21.94,21.94,0,0,1,2.31.07c-.13.63-.28,1.25-.45,1.82a12.71,12.71,0,0,1-1.53,3.51Zm.91-.05A16.09,16.09,0,0,0,13.07,20c.19-.63.35-1.3.49-2a19.51,19.51,0,0,1,2.7.48,12.4,12.4,0,0,1-.71,1.16,12.55,12.55,0,0,1-3.62,3.55ZM18,19.94a10,10,0,0,1-4.33,2.84,14.32,14.32,0,0,0,2.4-2.7A14.79,14.79,0,0,0,17,18.64l.34.1a12.42,12.42,0,0,1,1.32.49C18.44,19.47,18.25,19.71,18,19.94Zm2.52-4.59a11.53,11.53,0,0,1-1.48,3.25A11.51,11.51,0,0,0,17.5,18l-.19-.06a13.67,13.67,0,0,0,.86-2.6h2.39Zm.23-.8H18.38a22.85,22.85,0,0,0,.05-3.87h2.44A18.11,18.11,0,0,1,20.79,14.55Z"/>
        <path class="cls-2" d="M12.48,11.76h-.23V10.35a1.42,1.42,0,0,0-2.83,0v.47h.47v-.47a.95.95,0,0,1,1.89,0v1.41H9.19a2.06,2.06,0,1,0,3.29,0Zm-1.41,1.82v.58a.24.24,0,1,1-.47,0v-.58a.48.48,0,0,1-.24-.4.47.47,0,0,1,.47-.47.46.46,0,0,1,.24.87Z"/>
      </g>
    </g>
  </g>
</svg>
