<svg xmlns="http://www.w3.org/2000/svg" xmlns:xlink="http://www.w3.org/1999/xlink" viewBox="0 0 117.58 117.94">
  <defs>
    <style>
      .cls-1 {
        fill: url(#Degradado_sin_nombre_2);
      }
    </style>
    <linearGradient id="Degradado_sin_nombre_2" data-name="Degradado sin nombre 2" y1="58.97" x2="117.58" y2="58.97" gradientUnits="userSpaceOnUse">
      <stop offset="0" stop-color="#00e4f8"/>
      <stop offset="1" stop-color="#f705e8"/>
    </linearGradient>
  </defs>
  <g id="Layer_2" data-name="Layer 2">
    <g id="Layer_1-2" data-name="Layer 1">
      <path class="cls-1" d="M97.72,117.93c-8.9-.09-17.1-2.88-24.81-7-31-16.44-54.48-40.12-68.73-72.43C.64,30.49-1.28,22,1,13.16,3.39,3.59,14.74-2.38,24.09.91a6.62,6.62,0,0,1,3.29,3.21c4.06,8.43,7.92,17,11.84,25.44A5.87,5.87,0,0,1,37.75,37c-2.43,2.25-4.69,4.7-7,7s-2.58,4.63-.63,7.31A165.15,165.15,0,0,0,66.81,88c2.68,1.95,5,1.63,7.29-.71S79,82.5,81.37,80a5.59,5.59,0,0,1,6.88-1.28c8.72,4,17.45,7.93,26.07,12.13a5.94,5.94,0,0,1,3,3.82C119.14,109,112,118.36,97.72,117.93Z"/>
    </g>
  </g>
</svg>
