<?xml version="1.0" encoding="utf-8"?>
<!-- Generator: Adobe Illustrator 16.0.0, SVG Export Plug-In . SVG Version: 6.00 Build 0)  -->
<!DOCTYPE svg PUBLIC "-//W3C//DTD SVG 1.1//EN" "http://www.w3.org/Graphics/SVG/1.1/DTD/svg11.dtd">
<svg version="1.1" id="Layer_1" xmlns="http://www.w3.org/2000/svg" xmlns:xlink="http://www.w3.org/1999/xlink" x="0px" y="0px"
	 width="205px" height="205px" viewBox="0 0 205 205" enable-background="new 0 0 205 205" xml:space="preserve">
<linearGradient id="SVGID_1_" gradientUnits="userSpaceOnUse" x1="120.083" y1="-41.8848" x2="446.4639" y2="-41.8848" gradientTransform="matrix(0.612 0 0 -0.612 -70.3641 77.4276)">
	<stop  offset="0" style="stop-color:#22ACCC"/>
	<stop  offset="1" style="stop-color:#EF1787"/>
</linearGradient>
<path fill="url(#SVGID_1_)" d="M202.855,103.002c0-55.073-44.783-99.857-99.855-99.857c-27.597,0-54.182,11.597-73.035,31.759
	C10.875,55.363,1.418,82.067,3.38,110.139c3.509,50.493,44.249,90.341,94.801,92.72c1.606,0.06,3.211,0.119,4.818,0.119
	c19.566,0,38.36-5.591,54.716-16.296c2.676-1.784,3.449-5.353,1.665-8.028c-1.785-2.677-5.353-3.391-8.029-1.666
	c-15.642,10.229-33.781,15.226-52.635,14.333c-44.723-2.081-80.706-37.35-83.798-81.896c-1.724-24.8,6.661-48.412,23.492-66.492
	c16.653-17.842,40.205-28.072,64.529-28.072c48.709,0,88.319,39.609,88.319,88.497c0,0.357,0.952,35.625-27.537,49.898
	c-1.605,0.773-2.913,0.179-3.39-0.118c-0.594-0.357-1.546-1.19-1.546-2.854V55.363c0-3.212-2.617-5.769-5.769-5.769
	c-3.212,0-5.77,2.617-5.77,5.769v15.344C136.959,57.444,120.96,48.88,103,48.88c-30.749,0-55.787,25.039-55.787,55.786
	c0,30.75,25.039,55.787,55.787,55.787c1.07,0,2.081-0.06,3.151-0.118c0.357,0,0.654-0.06,1.011-0.06
	c0.714-0.061,1.428-0.119,2.142-0.179c0.356-0.06,0.773-0.118,1.13-0.118c0.654-0.061,1.309-0.179,1.963-0.299
	c0.356-0.059,0.714-0.118,1.13-0.178c0.654-0.119,1.309-0.237,1.963-0.416c0.356-0.06,0.653-0.119,1.011-0.238
	c0.773-0.179,1.487-0.416,2.261-0.595c0.237-0.059,0.415-0.119,0.653-0.179c1.963-0.594,3.866-1.308,5.77-2.141
	c0.118-0.059,0.297-0.119,0.416-0.179c0.772-0.356,1.546-0.714,2.319-1.07c0.179-0.119,0.357-0.179,0.595-0.297
	c0.714-0.357,1.427-0.773,2.141-1.131c0.179-0.118,0.357-0.178,0.536-0.297c0.714-0.417,1.486-0.892,2.2-1.368
	c0.119-0.059,0.238-0.119,0.356-0.237c3.45-2.261,6.603-4.877,9.457-7.852c0.059-0.059,0.059-0.059,0.119-0.118
	c0.653-0.714,1.367-1.428,1.962-2.142c0.061-0.06,0.061-0.118,0.119-0.118c0.654-0.773,1.309-1.547,1.903-2.379v11.478
	c0,5.234,2.616,9.933,7.077,12.668c4.461,2.796,9.992,3.034,14.69,0.655C204.046,145.882,202.916,104.549,202.855,103.002z
	 M103,148.856c-24.384,0-44.189-19.805-44.189-44.19c0-24.383,19.805-44.188,44.189-44.188c24.384,0,44.188,19.805,44.188,44.188
	C147.188,129.052,127.384,148.856,103,148.856z"/>
</svg>
